<?xml version="1.0" encoding="UTF-8"?>
<svg id="Layer_1" xmlns="http://www.w3.org/2000/svg" version="1.1" viewBox="0 0 1263.08 536.47">
  <!-- Generator: Adobe Illustrator 29.8.2, SVG Export Plug-In . SVG Version: 2.1.1 Build 3)  -->
  <defs>
    <style>
      .st0, .st1, .st2, .st3, .st4, .st5, .st6, .st7, .st8, .st9, .st10 {
        fill: none;
      }

      .st11 {
        font-size: 8.24px;
      }

      .st11, .st12, .st13, .st14, .st15, .st16, .st17, .st18, .st19, .st20, .st21, .st22, .st23, .st24, .st25, .st26, .st27, .st28, .st29, .st30 {
        fill: #231f20;
      }

      .st11, .st12, .st20, .st21, .st22, .st24, .st25, .st26, .st27, .st28, .st29, .st30 {
        font-family: Georgia-Italic, Georgia;
        font-style: italic;
      }

      .st12 {
        font-size: 3.97px;
      }

      .st31 {
        fill: #6badd6;
      }

      .st14 {
        font-size: 20.93px;
      }

      .st14, .st15, .st16, .st17, .st18, .st19 {
        font-family: Georgia, Georgia;
      }

      .st1, .st2, .st3 {
        stroke: #6badd6;
      }

      .st1, .st2, .st3, .st4, .st5, .st6, .st9, .st10, .st32 {
        stroke-miterlimit: 10;
      }

      .st1, .st4, .st9 {
        stroke-width: 4px;
      }

      .st15 {
        font-size: 14.67px;
      }

      .st2, .st3, .st10, .st32 {
        stroke-width: 3px;
      }

      .st16 {
        font-size: 11.6px;
      }

      .st17, .st20 {
        font-size: 18.85px;
      }

      .st18 {
        font-size: 18.97px;
      }

      .st19 {
        font-size: 17.4px;
      }

      .st3 {
        stroke-dasharray: 10.11 10.11;
      }

      .st4 {
        stroke-dasharray: 4.76 4.76;
      }

      .st4, .st5, .st6, .st9, .st10, .st32 {
        stroke: #231f20;
      }

      .st5 {
        stroke-width: 1.5px;
      }

      .st21 {
        font-size: 20px;
      }

      .st6, .st7 {
        stroke-width: 2px;
      }

      .st22 {
        font-size: 10.08px;
      }

      .st23 {
        font-family: Georgia-Bold, Georgia;
        font-size: 17.59px;
        font-weight: 700;
      }

      .st24 {
        font-size: 20.1px;
      }

      .st7, .st8 {
        stroke: #010101;
        stroke-linecap: round;
        stroke-linejoin: round;
      }

      .st25 {
        font-size: 11.09px;
      }

      .st26 {
        font-size: 6.05px;
      }

      .st27 {
        font-size: 8.03px;
      }

      .st28 {
        font-size: 4.85px;
      }

      .st29 {
        font-size: 11px;
      }

      .st30 {
        font-size: 9.09px;
      }

      .st32 {
        fill: #939598;
      }
    </style>
  </defs>
  <path class="st13" d="M430.19,127.58"/>
  <path class="st13" d="M353.25,127.58"/>
  <g>
    <g>
      <rect class="st10" x="185.84" y="60.4" width="249.12" height="158.19"/>
      <line class="st10" x1="185.84" y1="192.23" x2="434.97" y2="192.23"/>
      <line class="st10" x1="185.84" y1="165.86" x2="434.97" y2="165.86"/>
      <line class="st10" x1="185.84" y1="139.5" x2="434.97" y2="139.5"/>
      <line class="st10" x1="185.84" y1="113.13" x2="434.97" y2="113.13"/>
      <line class="st10" x1="185.84" y1="86.77" x2="434.97" y2="86.77"/>
      <line class="st10" x1="393.45" y1="60.4" x2="393.45" y2="218.59"/>
      <line class="st10" x1="351.93" y1="60.4" x2="351.93" y2="218.59"/>
      <line class="st10" x1="310.41" y1="60.4" x2="310.41" y2="218.59"/>
      <line class="st10" x1="268.89" y1="60.4" x2="268.89" y2="218.59"/>
      <line class="st10" x1="227.37" y1="60.4" x2="227.37" y2="218.59"/>
    </g>
    <g>
      <rect class="st32" x="185.84" y="40.68" width="249.12" height="19.72"/>
      <line class="st32" x1="393.45" y1="40.68" x2="393.45" y2="60.4"/>
      <line class="st32" x1="351.93" y1="40.68" x2="351.93" y2="60.4"/>
      <line class="st32" x1="310.41" y1="40.68" x2="310.41" y2="60.4"/>
      <line class="st32" x1="268.89" y1="40.68" x2="268.89" y2="60.4"/>
      <line class="st32" x1="227.37" y1="40.68" x2="227.37" y2="60.4"/>
    </g>
    <text class="st16" transform="translate(188.97 53.47)"><tspan x="0" y="0">Trait 1</tspan></text>
    <text class="st16" transform="translate(230.5 53.47)"><tspan x="0" y="0">Trait 2</tspan></text>
    <text class="st16" transform="translate(272.02 53.47)"><tspan x="0" y="0">Trait 3</tspan></text>
    <text class="st16" transform="translate(313.55 53.47)"><tspan x="0" y="0">Trait 4</tspan></text>
    <text class="st16" transform="translate(355.08 53.47)"><tspan x="0" y="0">Trait 5</tspan></text>
    <text class="st16" transform="translate(396.7 53.47)"><tspan x="0" y="0">Trait 6</tspan></text>
    <text class="st20" transform="translate(72.42 81.55)"><tspan x="0" y="0">S. tchadensis</tspan></text>
    <text class="st20" transform="translate(79.42 108.03)"><tspan x="0" y="0">Ar. ramidus</tspan></text>
    <text class="st20" transform="translate(57.46 134.51)"><tspan x="0" y="0">Au. anamensis</tspan></text>
    <text class="st20" transform="translate(70.35 160.99)"><tspan x="0" y="0">Au. afarensis</tspan></text>
    <text class="st20" transform="translate(100.47 187.47)"><tspan x="0" y="0">H. habilis</tspan></text>
    <text class="st20" transform="translate(85.42 213.95)"><tspan x="0" y="0">H. ergaster</tspan></text>
    <g>
      <text class="st19" transform="translate(201.38 77.75) scale(1.11 1)"><tspan x="0" y="0">?</tspan></text>
      <text class="st19" transform="translate(200.33 104.22) scale(1.11 1)"><tspan x="0" y="0">0</tspan></text>
      <text class="st19" transform="translate(201.73 130.68)"><tspan x="0" y="0">?</tspan></text>
      <text class="st19" transform="translate(202.08 157.15)"><tspan x="0" y="0">1</tspan></text>
      <text class="st19" transform="translate(201.17 183.61)"><tspan x="0" y="0">2</tspan></text>
      <text class="st19" transform="translate(201.17 210.08)"><tspan x="0" y="0">2</tspan></text>
    </g>
    <g>
      <text class="st19" transform="translate(242.4 77.75) scale(1.11 1)"><tspan x="0" y="0">0</tspan></text>
      <text class="st19" transform="translate(241.35 104.22) scale(1.11 1)"><tspan x="0" y="0">0</tspan></text>
      <text class="st19" transform="translate(242.75 130.68)"><tspan x="0" y="0">0</tspan></text>
      <text class="st19" transform="translate(243.1 157.15)"><tspan x="0" y="0">0</tspan></text>
      <text class="st19" transform="translate(242.19 183.61)"><tspan x="0" y="0">0</tspan></text>
      <text class="st19" transform="translate(242.19 210.08)"><tspan x="0" y="0">0</tspan></text>
    </g>
    <g>
      <text class="st19" transform="translate(284.36 77.75) scale(1.11 1)"><tspan x="0" y="0">2</tspan></text>
      <text class="st19" transform="translate(283.12 104.22) scale(1.11 1)"><tspan x="0" y="0">0</tspan></text>
      <text class="st19" transform="translate(284.63 130.68)"><tspan x="0" y="0">0</tspan></text>
      <text class="st19" transform="translate(284.87 157.15)"><tspan x="0" y="0">0</tspan></text>
      <text class="st19" transform="translate(284.16 183.61)"><tspan x="0" y="0">0</tspan></text>
      <text class="st19" transform="translate(283.93 210.08)"><tspan x="0" y="0">0</tspan></text>
    </g>
    <g>
      <text class="st19" transform="translate(325.49 77.75) scale(1.11 1)"><tspan x="0" y="0">0</tspan></text>
      <text class="st19" transform="translate(324.44 104.22) scale(1.11 1)"><tspan x="0" y="0">0</tspan></text>
      <text class="st19" transform="translate(325.64 130.68)"><tspan x="0" y="0">0</tspan></text>
      <text class="st19" transform="translate(325.85 157.15)"><tspan x="0" y="0">0</tspan></text>
      <text class="st19" transform="translate(327.05 183.61)"><tspan x="0" y="0">1</tspan></text>
      <text class="st19" transform="translate(325.22 210.08)"><tspan x="0" y="0">0</tspan></text>
    </g>
    <g>
      <text class="st19" transform="translate(368.23 77.75) scale(1.11 1)"><tspan x="0" y="0">?</tspan></text>
      <text class="st19" transform="translate(366.21 104.22) scale(1.11 1)"><tspan x="0" y="0">0</tspan></text>
      <text class="st19" transform="translate(367.72 130.68)"><tspan x="0" y="0">0</tspan></text>
      <text class="st19" transform="translate(367.96 157.15)"><tspan x="0" y="0">0</tspan></text>
      <text class="st19" transform="translate(368.87 183.61)"><tspan x="0" y="0">1</tspan></text>
      <text class="st19" transform="translate(368.63 210.08)"><tspan x="0" y="0">1</tspan></text>
    </g>
    <g>
      <text class="st19" transform="translate(409.77 77.75) scale(1.11 1)"><tspan x="0" y="0">?</tspan></text>
      <text class="st19" transform="translate(407.76 104.22) scale(1.11 1)"><tspan x="0" y="0">0</tspan></text>
      <text class="st19" transform="translate(410.88 130.68)"><tspan x="0" y="0">1</tspan></text>
      <text class="st19" transform="translate(409.51 157.15)"><tspan x="0" y="0">0</tspan></text>
      <text class="st19" transform="translate(408.8 183.61)"><tspan x="0" y="0">0</tspan></text>
      <text class="st19" transform="translate(408.57 210.08)"><tspan x="0" y="0">0</tspan></text>
    </g>
  </g>
  <text class="st23" transform="translate(124.83 14.79)"><tspan x="0" y="0">1. Start from hominin data</tspan></text>
  <text class="st23" transform="translate(559.88 14.79)"><tspan x="0" y="0">2. Infer posterior distribution</tspan></text>
  <g>
    <path class="st0" d="M899.74,134.72"/>
    <g>
      <polyline class="st9" points="1074.82 43.38 1017.05 43.38 1017.05 73.29 1057.1 73.29"/>
      <polyline class="st9" points="1017.05 59.77 959.29 59.77 959.29 111.81 1031.85 111.81"/>
      <polyline class="st9" points="960.02 85.79 933.89 85.79 933.89 166.48 974.82 166.48"/>
      <polyline class="st9" points="985.93 149.17 974.82 149.17 974.82 183.8 1004.81 183.8"/>
      <polyline class="st9" points="933.75 135.89 907.61 135.89 907.62 220.55 948.55 220.55"/>
      <text class="st21" transform="translate(954.35 225.06)"><tspan x="0" y="0">S. tchadensis</tspan></text>
      <text class="st21" transform="translate(989.81 153.47)"><tspan x="0" y="0">Ar. ramidus</tspan></text>
      <text class="st21" transform="translate(1007.39 189.26)"><tspan x="0" y="0">Au. anamensis</tspan></text>
      <text class="st21" transform="translate(1033.69 117.68)"><tspan x="0" y="0">Au. afarensis</tspan></text>
      <text class="st21" transform="translate(1061.67 81.89)"><tspan x="0" y="0">H. habilis</tspan></text>
      <text class="st21" transform="translate(1082.56 46.09)"><tspan x="0" y="0">H. ergaster</tspan></text>
    </g>
    <g>
      <path class="st9" d="M1187.52,149.26c11.95,12.94,37.13,19.68,54.36,1.9,13.08-13.49,12.68-35.95,0-49.47-13.07-13.94-31.24-13.52-44.48-6.94"/>
      <path class="st13" d="M1187.52,101.69c3.51-4.94,7.31-11.87,8.78-17.48l2.51,9.8,8.19,5.93c-5.75-.69-13.6.3-19.48,1.75Z"/>
    </g>
    <text class="st14" transform="translate(1190.41 131.77)"><tspan x="0" y="0">1,000</tspan></text>
  </g>
  <text class="st23" transform="translate(1010.52 14.79)"><tspan x="0" y="0">3. Sample tree</tspan></text>
  <text class="st23" transform="translate(118.48 264.03)"><tspan x="0" y="0">4. Simulate on sampled tree</tspan></text>
  <text class="st23" transform="translate(545.72 264.03)"><tspan x="0" y="0">5. Principal components analysis</tspan></text>
  <text class="st23" transform="translate(904.84 264.03)"><tspan x="0" y="0">6. Neighbor joining and tree distance </tspan></text>
  <g>
    <g>
      <line class="st9" x1="1041.11" y1="431.9" x2="1042.69" y2="433.84"/>
      <line class="st4" x1="1045.71" y1="437.52" x2="1074.35" y2="472.52"/>
      <line class="st9" x1="1075.86" y1="474.36" x2="1077.45" y2="476.3"/>
    </g>
    <polyline class="st9" points="964.45 288.69 945.69 288.69 945.69 329.18 964.45 329.18"/>
    <polyline class="st9" points="945.69 310.87 926.92 310.87 926.92 381.34 964.45 381.34"/>
    <polyline class="st9" points="927.16 346.1 918.67 346.1 918.67 455.35 931.97 455.35"/>
    <polyline class="st9" points="964.45 431.9 931.97 431.9 931.97 478.79 964.45 478.79"/>
    <polyline class="st9" points="918.62 413.94 900.17 413.94 900.17 528.55 964.91 528.55"/>
    <text class="st29" transform="translate(966.6 530.49)"><tspan x="0" y="0">S. tchadensis</tspan></text>
    <text class="st29" transform="translate(965.59 433.63)"><tspan x="0" y="0">Ar. ramidus</tspan></text>
    <text class="st29" transform="translate(965.43 480.73)"><tspan x="0" y="0">Au. anamensis</tspan></text>
    <text class="st29" transform="translate(965.43 383.46)"><tspan x="0" y="0">Au. afarensis</tspan></text>
    <text class="st29" transform="translate(965.59 332.83)"><tspan x="0" y="0">H. habilis</tspan></text>
    <text class="st29" transform="translate(965.75 290.63)"><tspan x="0" y="0">H. ergaster</tspan></text>
    <g>
      <polyline class="st1" points="1155.55 286.23 1187.41 286.23 1187.41 331.12 1155.55 331.12"/>
      <polyline class="st1" points="1155.55 378.28 1187.41 378.28 1187.41 429.77 1155.55 429.77"/>
      <polyline class="st1" points="1155.55 476.3 1187.41 476.3 1187.41 525.58 1155.55 525.58"/>
      <polyline class="st1" points="1187.41 306.73 1219.26 306.73 1219.26 407.33 1187.41 407.33"/>
      <polyline class="st1" points="1219.26 356.25 1251.12 356.25 1251.12 498.74 1187.41 498.74"/>
    </g>
    <text class="st29" transform="translate(1089.26 528.55)"><tspan x="0" y="0">S. tchadensis</tspan></text>
    <text class="st29" transform="translate(1093.34 478.79)"><tspan x="0" y="0">Ar. ramidus</tspan></text>
    <text class="st29" transform="translate(1080.52 431.9)"><tspan x="0" y="0">Au. anamensis</tspan></text>
    <text class="st29" transform="translate(1088.05 381.34)"><tspan x="0" y="0">Au. afarensis</tspan></text>
    <text class="st29" transform="translate(1105.63 332.83)"><tspan x="0" y="0">H. habilis</tspan></text>
    <text class="st29" transform="translate(1096.84 288.69)"><tspan x="0" y="0">H. ergaster</tspan></text>
    <g>
      <line class="st9" x1="1077.45" y1="431.9" x2="1075.86" y2="433.84"/>
      <line class="st4" x1="1072.85" y1="437.52" x2="1044.2" y2="472.52"/>
      <line class="st9" x1="1042.69" y1="474.36" x2="1041.11" y2="476.3"/>
    </g>
  </g>
  <g>
    <g>
      <polyline class="st1" points="671.63 349.67 693.77 379.87 705.98 357.69"/>
      <polyline class="st1" points="620.13 442.26 681.21 433.94 650.75 454.39"/>
      <line class="st1" x1="803.48" y1="349.67" x2="681.21" y2="433.94"/>
      <line class="st1" x1="803.48" y1="462.71" x2="734.72" y2="397.06"/>
      <line class="st1" x1="693.77" y1="379.87" x2="705.98" y2="416.87"/>
    </g>
    <polyline class="st9" points="569.29 280.64 569.29 509.67 846.6 509.67"/>
    <text class="st17" transform="translate(604.62 526.85)"><tspan x="0" y="0">Principal Component 1</tspan></text>
    <text class="st18" transform="translate(560.85 495.78) rotate(-90)"><tspan x="0" y="0">Principal Component 2</tspan></text>
    <ellipse class="st13" cx="620.13" cy="442.26" rx="4.19" ry="4.16"/>
    <ellipse class="st13" cx="650.75" cy="454.39" rx="4.19" ry="4.16"/>
    <ellipse class="st13" cx="803.48" cy="462.71" rx="4.19" ry="4.16"/>
    <ellipse class="st13" cx="671.63" cy="349.67" rx="4.19" ry="4.16"/>
    <ellipse class="st13" cx="705.98" cy="357.69" rx="4.19" ry="4.16"/>
    <ellipse class="st13" cx="803.48" cy="349.67" rx="4.19" ry="4.16"/>
    <text class="st25" transform="translate(576.05 436.53)"><tspan x="0" y="0">S. tchadensis</tspan></text>
    <text class="st25" transform="translate(580.56 462.71)"><tspan x="0" y="0">Ar. ramidus</tspan></text>
    <text class="st25" transform="translate(722.62 467.94)"><tspan x="0" y="0">Au. anamensis</tspan></text>
    <text class="st25" transform="translate(757.9 343.58)"><tspan x="0" y="0">Au. afarensis</tspan></text>
    <text class="st25" transform="translate(688.8 349.67)"><tspan x="0" y="0">H. habilis</tspan></text>
    <text class="st25" transform="translate(615.94 341.18)"><tspan x="0" y="0">H. ergaster</tspan></text>
    <path class="st9" d="M567.55,479.3"/>
  </g>
  <g>
    <polygon class="st5" points="260.69 390.17 259.42 385.94 261.25 382.85 264.09 380.6 269.21 380.6 270.47 385.94 273.88 388.48 281.47 388.48 278.04 394.21 269.21 395.05 260.69 390.17"/>
    <polygon class="st5" points="301.53 407.6 311.15 405.9 314 402.3 310.27 398.36 304.55 397.77 301.53 394.42 296.41 394.42 293.09 396.92 292.36 401.75 295.15 404.21 301.53 407.6"/>
    <polygon class="st5" points="288.52 436.75 295.62 434.63 298.26 431.02 292.36 429.33 286.49 427.34 286 423.14 280.88 423.14 279.3 427.08 279.3 431.02 282.15 433.78 288.52 436.75"/>
    <polygon class="st5" points="359.96 419.92 356.31 415.62 351.74 414.28 347.18 412.42 341.57 412.04 341.26 415.62 341.57 420.77 343.88 424.39 350.48 427.34 357.57 425.23 359.96 419.92"/>
    <polygon class="st5" points="320.75 480.83 314.38 477.86 311.54 475.11 311.54 471.17 311.54 467.23 316.19 467.23 321.16 469.46 326.58 472.53 330.49 475.11 327.85 478.71 320.75 480.83"/>
    <polygon class="st5" points="383.44 500.09 377.06 497.12 376.54 494.61 374.57 490.54 374.22 486.48 377.06 483.97 383.44 485.45 388.6 489.45 388.25 493.51 388.6 497.58 383.44 500.09"/>
    <polygon class="st5" points="397.08 460.38 399.71 457.17 400.97 453.95 399.6 451.38 395.81 450.53 390.73 450.25 387.86 452.79 385.97 456.51 387.34 459.73 391.13 461.43 397.08 460.38"/>
    <polygon class="st5" points="406.82 459.62 409.34 455.95 413.96 454.71 419.48 456.8 422.11 460.47 419.58 464.28 416.95 467.5 413.16 469.16 407.73 467.04 407.73 464.28 406.82 459.62"/>
    <polygon class="st5" points="426.34 443.08 427.24 439.27 431.03 436.44 435.65 436.44 441.79 438.42 443.8 441.39 441.28 444.78 438.64 447.54 433.59 448.81 428.16 446.69 426.34 443.08"/>
    <polygon class="st5" points="469.78 482.98 473 479.04 476.91 476.41 483.28 477.89 489.58 479.29 487.18 482.98 488.44 487.05 482.02 487.05 476.91 489.77 474.27 486.41 469.78 482.98"/>
    <g>
      <polyline class="st9" points="23.07 393.93 23.07 437.31 58.34 437.31 58.34 407.23"/>
      <polyline class="st9" points="42.39 437.31 42.39 480.69 103.77 480.69 103.77 426.19"/>
      <polyline class="st9" points="73.08 480.14 73.08 499.76 168.25 499.76 168.25 469.02"/>
      <polyline class="st9" points="147.83 460.68 147.83 469.02 188.67 469.02 188.67 446.5"/>
      <polyline class="st9" points="132.17 499.86 132.17 519.49 232.02 519.49 232.02 488.75"/>
    </g>
    <g>
      <polyline class="st9" points="271.15 397.68 271.15 441.06 306.42 441.06 306.42 410.98"/>
      <polyline class="st9" points="290.47 441.06 290.47 484.44 351.85 484.44 351.85 429.95"/>
      <polyline class="st9" points="321.16 483.89 321.16 503.51 416.33 503.51 416.33 472.77"/>
      <polyline class="st9" points="395.91 464.43 395.91 472.77 436.75 472.77 436.75 450.25"/>
      <polyline class="st9" points="380.25 503.61 380.25 523.24 480.1 523.24 480.1 492.5"/>
    </g>
    <path class="st31" d="M218.09,487.39c6.47,0,9.52-6,13.92-6,4.4,0,7.28,6,13.92,6"/>
    <path class="st31" d="M123.86,497.78c3.86,0,5.69-6,8.32-6s4.35,6,8.32,6"/>
    <path class="st31" d="M156.56,467.06c5.43,0,7.99-6,11.68-6,3.69,0,6.11,6,11.68,6"/>
    <path class="st31" d="M173.11,444.67c7.23,0,10.64-6,15.57-6s8.13,6,15.57,6"/>
    <path class="st31" d="M134.26,459.44c6.3,0,9.28-6,13.56-6,4.29,0,7.09,6,13.56,6"/>
    <path class="st31" d="M63.49,478.59c4.46,0,6.56-6,9.6-6,3.03,0,5.02,6,9.6,6"/>
    <path class="st31" d="M85.37,425.17c8.55,0,12.59-6,18.41-6,5.82,0,9.62,6,18.41,6"/>
    <path class="st31" d="M29.84,435.08c5.7,0,8.39-6,12.27-6,3.88,0,6.41,6,12.27,6"/>
    <path class="st31" d="M40.45,405.24c8.31,0,12.23-6,17.89-6s9.35,6,17.89,6"/>
    <path class="st31" d="M.11,392.39c10.66,0,15.7-6,22.96-6s12,6,22.96,6"/>
    <line class="st0" x1="426.19" y1="479.3" x2="426.48" y2="479.3"/>
    <path class="st31" d="M470.89,482.58c.33.41.1.93-.52,1.15s-1.38.07-1.71-.35-.1-.93.52-1.15,1.38-.07,1.71.35Z"/>
    <path class="st31" d="M474.82,485.65c.63.2.89.71.59,1.13s-1.06.6-1.69.39-.89-.71-.59-1.13,1.06-.6,1.69-.39Z"/>
    <path class="st31" d="M476.68,488.73c.69-.08,1.34.22,1.47.68s-.33.9-1.02.98-1.34-.22-1.47-.68.33-.9,1.02-.98Z"/>
    <path class="st31" d="M481.11,486.46c.48-.34,1.28-.35,1.79-.03s.52.86.04,1.2-1.28.35-1.79.03-.52-.86-.04-1.2Z"/>
    <ellipse class="st31" cx="488.44" cy="487.05" rx="1.26" ry=".85"/>
    <path class="st31" d="M486.07,483.38c-.33-.41-.1-.93.52-1.15s1.38-.07,1.71.35.1.93-.52,1.15-1.38.07-1.71-.35Z"/>
    <path class="st31" d="M489.03,480.05c-.63-.2-.89-.71-.59-1.13s1.06-.6,1.69-.39.89.71.59,1.13-1.06.6-1.69.39Z"/>
    <path class="st31" d="M483.51,478.73c-.69.08-1.34-.22-1.47-.68s.33-.9,1.02-.98,1.34.22,1.47.68-.33.9-1.02.98Z"/>
    <path class="st31" d="M477.82,477c-.48.34-1.28.35-1.79.03s-.52-.86-.04-1.2,1.28-.35,1.79-.03.52.86.04,1.2Z"/>
    <ellipse class="st31" cx="473" cy="479.04" rx="1.26" ry=".85"/>
    <path class="st31" d="M469.78,482.98"/>
    <path class="st31" d="M375.68,490.14c.33.41.1.93-.52,1.15s-1.38.07-1.71-.35-.1-.93.52-1.15,1.38-.07,1.71.35Z"/>
    <path class="st31" d="M377.09,493.84c.63.2.89.71.59,1.13s-1.06.6-1.69.39-.89-.71-.59-1.13,1.06-.6,1.69-.39Z"/>
    <path class="st31" d="M376.84,496.28c.69-.08,1.34.22,1.47.68s-.33.9-1.02.98-1.34-.22-1.47-.68.33-.9,1.02-.98Z"/>
    <path class="st31" d="M382.53,499.5c.48-.34,1.28-.35,1.79-.03s.52.86.04,1.2-1.28.35-1.79.03-.52-.86-.04-1.2Z"/>
    <ellipse class="st31" cx="388.6" cy="497.58" rx="1.26" ry=".85"/>
    <path class="st31" d="M387.14,493.91c-.33-.41-.1-.93.52-1.15s1.38-.07,1.71.35.1.93-.52,1.15-1.38.07-1.71-.35Z"/>
    <path class="st31" d="M388.05,490.21c-.63-.2-.89-.71-.59-1.13s1.06-.6,1.69-.39.89.71.59,1.13-1.06.6-1.69.39Z"/>
    <path class="st31" d="M383.66,486.29c-.69.08-1.34-.22-1.47-.68s.33-.9,1.02-.98,1.34.22,1.47.68-.33.9-1.02.98Z"/>
    <path class="st31" d="M377.98,484.55c-.48.34-1.28.35-1.79.03s-.52-.86-.04-1.2,1.28-.35,1.79-.03.52.86.04,1.2Z"/>
    <ellipse class="st31" cx="374.22" cy="486.48" rx="1.26" ry=".85"/>
    <path class="st31" d="M369.93,493.51"/>
    <path class="st31" d="M407.93,459.22c.33.41.1.93-.52,1.15s-1.38.07-1.71-.35-.1-.93.52-1.15,1.38-.07,1.71.35Z"/>
    <path class="st31" d="M408.28,463.52c.63.2.89.71.59,1.13s-1.06.6-1.69.39-.89-.71-.59-1.13,1.06-.6,1.69-.39Z"/>
    <path class="st31" d="M407.51,466.21c.69-.08,1.34.22,1.47.68s-.33.9-1.02.98-1.34-.22-1.47-.68.33-.9,1.02-.98Z"/>
    <path class="st31" d="M412.25,468.58c.48-.34,1.28-.35,1.79-.03s.52.86.04,1.2-1.28.35-1.79.03-.52-.86-.04-1.2Z"/>
    <ellipse class="st31" cx="416.95" cy="467.5" rx="1.26" ry=".85"/>
    <path class="st31" d="M418.47,464.68c-.33-.41-.1-.93.52-1.15s1.38-.07,1.71.35.1.93-.52,1.15-1.38.07-1.71-.35Z"/>
    <path class="st31" d="M421.56,460.98c-.63-.2-.89-.71-.59-1.13s1.06-.6,1.69-.39.89.71.59,1.13-1.06.6-1.69.39Z"/>
    <path class="st31" d="M419.7,457.63c-.69.08-1.34-.22-1.47-.68s.33-.9,1.02-.98,1.34.22,1.47.68-.33.9-1.02.98Z"/>
    <path class="st31" d="M414.87,455.3c-.48.34-1.28.35-1.79.03s-.52-.86-.04-1.2,1.28-.35,1.79-.03.52.86.04,1.2Z"/>
    <ellipse class="st31" cx="409.34" cy="455.95" rx="1.26" ry=".85"/>
    <path class="st31" d="M312.65,470.77c.33.41.1.93-.52,1.15s-1.38.07-1.71-.35-.1-.93.52-1.15,1.38-.07,1.71.35Z"/>
    <path class="st31" d="M312.09,474.34c.63.2.89.71.59,1.13s-1.06.6-1.69.39-.89-.71-.59-1.13,1.06-.6,1.69-.39Z"/>
    <path class="st31" d="M314.15,477.03c.69-.08,1.34.22,1.47.68s-.33.9-1.02.98-1.34-.22-1.47-.68.33-.9,1.02-.98Z"/>
    <path class="st31" d="M319.84,480.25c.48-.34,1.28-.35,1.79-.03s.52.86.04,1.2-1.28.35-1.79.03-.52-.86-.04-1.2Z"/>
    <ellipse class="st31" cx="327.85" cy="478.71" rx="1.26" ry=".85"/>
    <path class="st31" d="M329.38,475.51c-.33-.41-.1-.93.52-1.15s1.38-.07,1.71.35.1.93-.52,1.15-1.38.07-1.71-.35Z"/>
    <path class="st31" d="M326.04,473.29c-.63-.2-.89-.71-.59-1.13s1.06-.6,1.69-.39.89.71.59,1.13-1.06.6-1.69.39Z"/>
    <path class="st31" d="M321.39,470.29c-.69.08-1.34-.22-1.47-.68s.33-.9,1.02-.98,1.34.22,1.47.68-.33.9-1.02.98Z"/>
    <path class="st31" d="M317.11,467.81c-.48.34-1.28.35-1.79.03s-.52-.86-.04-1.2,1.28-.35,1.79-.03.52.86.04,1.2Z"/>
    <ellipse class="st31" cx="311.54" cy="467.23" rx="1.26" ry=".85"/>
    <path class="st31" d="M388.97,452.39c.33.41.1.93-.52,1.15s-1.38.07-1.71-.35-.1-.93.52-1.15,1.38-.07,1.71.35Z"/>
    <path class="st31" d="M386.52,455.75c.63.2.89.71.59,1.13s-1.06.6-1.69.39-.89-.71-.59-1.13,1.06-.6,1.69-.39Z"/>
    <path class="st31" d="M387.12,458.9c.69-.08,1.34.22,1.47.68s-.33.9-1.02.98-1.34-.22-1.47-.68.33-.9,1.02-.98Z"/>
    <path class="st31" d="M390.22,460.84c.48-.34,1.28-.35,1.79-.03s.52.86.04,1.2-1.28.35-1.79.03-.52-.86-.04-1.2Z"/>
    <ellipse class="st31" cx="397.08" cy="460.38" rx="1.26" ry=".85"/>
    <path class="st31" d="M398.59,457.57c-.33-.41-.1-.93.52-1.15s1.38-.07,1.71.35.1.93-.52,1.15-1.38.07-1.71-.35Z"/>
    <path class="st31" d="M400.42,454.71c-.63-.2-.89-.71-.59-1.13s1.06-.6,1.69-.39.89.71.59,1.13-1.06.6-1.69.39Z"/>
    <path class="st31" d="M399.83,452.21c-.69.08-1.34-.22-1.47-.68s.33-.9,1.02-.98,1.34.22,1.47.68-.33.9-1.02.98Z"/>
    <path class="st31" d="M396.73,451.11c-.48.34-1.28.35-1.79.03s-.52-.86-.04-1.2,1.28-.35,1.79-.03.52.86.04,1.2Z"/>
    <ellipse class="st31" cx="390.73" cy="450.25" rx="1.26" ry=".85"/>
    <path class="st31" d="M428.36,438.87c.33.41.1.93-.52,1.15s-1.38.07-1.71-.35-.1-.93.52-1.15,1.38-.07,1.71.35Z"/>
    <path class="st31" d="M426.89,442.32c.63.2.89.71.59,1.13s-1.06.6-1.69.39-.89-.71-.59-1.13,1.06-.6,1.69-.39Z"/>
    <path class="st31" d="M427.94,445.86c.69-.08,1.34.22,1.47.68s-.33.9-1.02.98-1.34-.22-1.47-.68.33-.9,1.02-.98Z"/>
    <path class="st31" d="M432.68,448.22c.48-.34,1.28-.35,1.79-.03s.52.86.04,1.2-1.28.35-1.79.03-.52-.86-.04-1.2Z"/>
    <ellipse class="st31" cx="438.64" cy="447.54" rx="1.26" ry=".85"/>
    <path class="st31" d="M440.16,445.18c-.33-.41-.1-.93.52-1.15s1.38-.07,1.71.35.1.93-.52,1.15-1.38.07-1.71-.35Z"/>
    <path class="st31" d="M443.25,442.15c-.63-.2-.89-.71-.59-1.13s1.06-.6,1.69-.39.89.71.59,1.13-1.06.6-1.69.39Z"/>
    <path class="st31" d="M442.01,439.25c-.69.08-1.34-.22-1.47-.68s.33-.9,1.02-.98,1.34.22,1.47.68-.33.9-1.02.98Z"/>
    <path class="st31" d="M436.56,437.03c-.48.34-1.28.35-1.79.03s-.52-.86-.04-1.2,1.28-.35,1.79-.03.52.86.04,1.2Z"/>
    <ellipse class="st31" cx="431.03" cy="436.44" rx="1.26" ry=".85"/>
    <path class="st31" d="M342.37,415.22c.33.41.1.93-.52,1.15s-1.38.07-1.71-.35-.1-.93.52-1.15,1.38-.07,1.71.35Z"/>
    <path class="st31" d="M342.12,420.01c.63.2.89.71.59,1.13s-1.06.6-1.69.39-.89-.71-.59-1.13,1.06-.6,1.69-.39Z"/>
    <path class="st31" d="M343.65,423.55c.69-.08,1.34.22,1.47.68s-.33.9-1.02.98-1.34-.22-1.47-.68.33-.9,1.02-.98Z"/>
    <path class="st31" d="M349.56,426.76c.48-.34,1.28-.35,1.79-.03s.52.86.04,1.2-1.28.35-1.79.03-.52-.86-.04-1.2Z"/>
    <ellipse class="st31" cx="357.57" cy="425.23" rx="1.26" ry=".85"/>
    <path class="st31" d="M358.84,420.32c-.33-.41-.1-.93.52-1.15s1.38-.07,1.71.35.1.93-.52,1.15-1.38.07-1.71-.35Z"/>
    <path class="st31" d="M355.76,416.38c-.63-.2-.89-.71-.59-1.13s1.06-.6,1.69-.39.89.71.59,1.13-1.06.6-1.69.39Z"/>
    <path class="st31" d="M351.96,415.11c-.69.08-1.34-.22-1.47-.68s.33-.9,1.02-.98,1.34.22,1.47.68-.33.9-1.02.98Z"/>
    <path class="st31" d="M348.09,413.01c-.48.34-1.28.35-1.79.03s-.52-.86-.04-1.2,1.28-.35,1.79-.03.52.86.04,1.2Z"/>
    <ellipse class="st31" cx="341.57" cy="412.04" rx="1.26" ry=".85"/>
    <path class="st31" d="M280.42,426.68c.33.41.1.93-.52,1.15s-1.38.07-1.71-.35-.1-.93.52-1.15,1.38-.07,1.71.35Z"/>
    <path class="st31" d="M279.85,430.26c.63.2.89.71.59,1.13s-1.06.6-1.69.39-.89-.71-.59-1.13,1.06-.6,1.69-.39Z"/>
    <path class="st31" d="M281.92,432.95c.69-.08,1.34.22,1.47.68s-.33.9-1.02.98-1.34-.22-1.47-.68.33-.9,1.02-.98Z"/>
    <path class="st31" d="M287.61,436.16c.48-.34,1.28-.35,1.79-.03s.52.86.04,1.2-1.28.35-1.79.03-.52-.86-.04-1.2Z"/>
    <ellipse class="st31" cx="295.62" cy="434.63" rx="1.26" ry=".85"/>
    <path class="st31" d="M297.15,431.42c-.33-.41-.1-.93.52-1.15s1.38-.07,1.71.35.1.93-.52,1.15-1.38.07-1.71-.35Z"/>
    <path class="st31" d="M291.81,430.09c-.63-.2-.89-.71-.59-1.13s1.06-.6,1.69-.39.89.71.59,1.13-1.06.6-1.69.39Z"/>
    <path class="st31" d="M286.72,428.18c-.69.08-1.34-.22-1.47-.68s.33-.9,1.02-.98,1.34.22,1.47.68-.33.9-1.02.98Z"/>
    <path class="st31" d="M286.91,423.73c-.48.34-1.28.35-1.79.03s-.52-.86-.04-1.2,1.28-.35,1.79-.03.52.86.04,1.2Z"/>
    <ellipse class="st31" cx="280.88" cy="423.14" rx="1.26" ry=".85"/>
    <path class="st31" d="M294.2,396.52c.33.41.1.93-.52,1.15s-1.38.07-1.71-.35-.1-.93.52-1.15,1.38-.07,1.71.35Z"/>
    <path class="st31" d="M292.91,400.98c.63.2.89.71.59,1.13s-1.06.6-1.69.39-.89-.71-.59-1.13,1.06-.6,1.69-.39Z"/>
    <path class="st31" d="M294.93,403.38c.69-.08,1.34.22,1.47.68s-.33.9-1.02.98-1.34-.22-1.47-.68.33-.9,1.02-.98Z"/>
    <path class="st31" d="M300.61,407.01c.48-.34,1.28-.35,1.79-.03s.52.86.04,1.2-1.28.35-1.79.03-.52-.86-.04-1.2Z"/>
    <ellipse class="st31" cx="311.15" cy="405.9" rx="1.26" ry=".85"/>
    <path class="st31" d="M312.67,402.7c-.33-.41-.1-.93.52-1.15s1.38-.07,1.71.35.1.93-.52,1.15-1.38.07-1.71-.35Z"/>
    <path class="st31" d="M309.72,399.12c-.63-.2-.89-.71-.59-1.13s1.06-.6,1.69-.39.89.71.59,1.13-1.06.6-1.69.39Z"/>
    <path class="st31" d="M304.77,398.61c-.69.08-1.34-.22-1.47-.68s.33-.9,1.02-.98,1.34.22,1.47.68-.33.9-1.02.98Z"/>
    <path class="st31" d="M302.44,395c-.48.34-1.28.35-1.79.03s-.52-.86-.04-1.2,1.28-.35,1.79-.03.52.86.04,1.2Z"/>
    <ellipse class="st31" cx="296.41" cy="394.42" rx="1.26" ry=".85"/>
    <path class="st31" d="M262.36,382.45c.33.41.1.93-.52,1.15s-1.38.07-1.71-.35-.1-.93.52-1.15,1.38-.07,1.71.35Z"/>
    <path class="st31" d="M259.97,385.18c.63.2.89.71.59,1.13s-1.06.6-1.69.39-.89-.71-.59-1.13,1.06-.6,1.69-.39Z"/>
    <path class="st31" d="M260.46,389.34c.69-.08,1.34.22,1.47.68s-.33.9-1.02.98-1.34-.22-1.47-.68.33-.9,1.02-.98Z"/>
    <path class="st31" d="M268.29,394.47c.48-.34,1.28-.35,1.79-.03s.52.86.04,1.2-1.28.35-1.79.03-.52-.86-.04-1.2Z"/>
    <ellipse class="st31" cx="278.04" cy="394.21" rx="1.26" ry=".85"/>
    <path class="st31" d="M280.35,388.88c-.33-.41-.1-.93.52-1.15s1.38-.07,1.71.35.1.93-.52,1.15-1.38.07-1.71-.35Z"/>
    <path class="st31" d="M273.33,389.24c-.63-.2-.89-.71-.59-1.13s1.06-.6,1.69-.39.89.71.59,1.13-1.06.6-1.69.39Z"/>
    <path class="st31" d="M270.69,386.77c-.69.08-1.34-.22-1.47-.68s.33-.9,1.02-.98,1.34.22,1.47.68-.33.9-1.02.98Z"/>
    <path class="st31" d="M270.12,381.19c-.48.34-1.28.35-1.79.03s-.52-.86-.04-1.2,1.28-.35,1.79-.03.52.86.04,1.2Z"/>
    <ellipse class="st31" cx="264.09" cy="380.6" rx="1.26" ry=".85"/>
    <text class="st24" transform="translate(232.02 474.26) rotate(-90)"><tspan x="0" y="0">S. tchadensis</tspan></text>
    <text class="st24" transform="translate(147.83 446.5) rotate(-90)"><tspan x="0" y="0">Ar. ramidus</tspan></text>
    <text class="st24" transform="translate(188.67 433.2) rotate(-90)"><tspan x="0" y="0">Au. anamensis</tspan></text>
    <text class="st24" transform="translate(103.77 411.19) rotate(-90)"><tspan x="0" y="0">Au. afarensis</tspan></text>
    <text class="st24" transform="translate(58.34 391.02) rotate(-90)"><tspan x="0" y="0">H. habilis</tspan></text>
    <text class="st24" transform="translate(21.6 382) rotate(-90)"><tspan x="0" y="0">H. ergaster</tspan></text>
    <text class="st15" transform="translate(8.83 530.58)"><tspan x="0" y="0">Brownian Motion</tspan></text>
    <text class="st15" transform="translate(304.29 530.88)"><tspan x="0" y="0">LDDMM</tspan></text>
    <text class="st24" transform="translate(483.54 472.36) rotate(-90)"><tspan x="0" y="0">S. tchadensis</tspan></text>
    <text class="st24" transform="translate(399.34 444.61) rotate(-90)"><tspan x="0" y="0">Ar. ramidus</tspan></text>
    <text class="st24" transform="translate(440.19 431.31) rotate(-90)"><tspan x="0" y="0">Au. anamensis</tspan></text>
    <text class="st24" transform="translate(355.29 409.3) rotate(-90)"><tspan x="0" y="0">Au. afarensis</tspan></text>
    <text class="st24" transform="translate(309.86 389.12) rotate(-90)"><tspan x="0" y="0">H. habilis</tspan></text>
    <text class="st24" transform="translate(273.12 380.1) rotate(-90)"><tspan x="0" y="0">H. ergaster</tspan></text>
  </g>
  <path class="st0" d="M411.27,131.14"/>
  <g>
    <polyline class="st6" points="684.52 81.92 662.23 81.92 662.23 93.46 677.68 93.46"/>
    <polyline class="st6" points="662.23 88.24 639.94 88.24 639.94 108.33 667.94 108.33"/>
    <polyline class="st6" points="640.22 98.28 630.14 98.28 630.14 129.42 645.93 129.42"/>
    <polyline class="st6" points="650.22 122.74 645.93 122.74 645.93 136.1 657.5 136.1"/>
    <polyline class="st6" points="630.09 117.62 620 117.62 620 150.29 635.79 150.29"/>
    <text class="st30" transform="translate(638.03 152.41)"><tspan x="0" y="0">S. tchadensis</tspan></text>
    <text class="st30" transform="translate(651.72 124.79)"><tspan x="0" y="0">Ar. ramidus</tspan></text>
    <text class="st30" transform="translate(658.5 138.6)"><tspan x="0" y="0">Au. anamensis</tspan></text>
    <text class="st30" transform="translate(668.65 110.97)"><tspan x="0" y="0">Au. afarensis</tspan></text>
    <text class="st30" transform="translate(679.44 97.16)"><tspan x="0" y="0">H. habilis</tspan></text>
    <text class="st30" transform="translate(687.51 83.35)"><tspan x="0" y="0">H. ergaster</tspan></text>
    <g>
      <g>
        <line class="st7" x1="754.11" y1="111.58" x2="772.91" y2="111.58"/>
        <line class="st7" x1="754.11" y1="98.75" x2="774.78" y2="98.75"/>
        <line class="st7" x1="748.68" y1="85.92" x2="755.55" y2="85.92"/>
        <line class="st7" x1="763.54" y1="73.09" x2="773.09" y2="73.09"/>
        <line class="st7" x1="793.54" y1="60.26" x2="799.2" y2="60.26"/>
        <line class="st7" x1="793.54" y1="47.43" x2="818.83" y2="47.43"/>
        <line class="st7" x1="742.19" y1="89.93" x2="742.19" y2="89.93"/>
        <line class="st7" x1="742.19" y1="105.17" x2="754.11" y2="105.17"/>
        <line class="st7" x1="742.19" y1="74.69" x2="748.68" y2="74.69"/>
        <line class="st7" x1="748.68" y1="63.47" x2="763.54" y2="63.47"/>
        <line class="st7" x1="763.54" y1="53.84" x2="793.54" y2="53.84"/>
        <line class="st7" x1="754.11" y1="105.17" x2="754.11" y2="111.58"/>
        <line class="st7" x1="754.11" y1="105.17" x2="754.11" y2="98.75"/>
        <line class="st7" x1="748.68" y1="74.69" x2="748.68" y2="85.92"/>
        <line class="st7" x1="763.54" y1="63.47" x2="763.54" y2="73.09"/>
        <line class="st7" x1="793.54" y1="53.84" x2="793.54" y2="60.26"/>
        <line class="st7" x1="793.54" y1="53.84" x2="793.54" y2="47.43"/>
        <line class="st7" x1="742.19" y1="89.93" x2="742.19" y2="89.93"/>
        <line class="st7" x1="742.19" y1="89.93" x2="742.19" y2="105.17"/>
        <line class="st7" x1="742.19" y1="89.93" x2="742.19" y2="74.69"/>
        <line class="st7" x1="748.68" y1="74.69" x2="748.68" y2="63.47"/>
        <line class="st7" x1="763.54" y1="63.47" x2="763.54" y2="53.84"/>
      </g>
      <text class="st27" transform="translate(756.98 88.34)"><tspan x="0" y="0">Au. anamensis</tspan></text>
      <text class="st27" transform="translate(774.28 75.57)"><tspan x="0" y="0">Au. afarensis</tspan></text>
      <text class="st27" transform="translate(799.81 62.58)"><tspan x="0" y="0">H. habilis</tspan></text>
      <text class="st27" transform="translate(819.76 49.54)"><tspan x="0" y="0">H. ergaster</tspan></text>
      <text class="st27" transform="translate(775.41 101.7)"><tspan x="0" y="0">Ar. ramidus</tspan></text>
      <text class="st27" transform="translate(774.78 114.23)"><tspan x="0" y="0">S. tchadensis</tspan></text>
    </g>
    <g>
      <g>
        <line class="st8" x1="680.09" y1="65.94" x2="692.53" y2="65.94"/>
        <line class="st8" x1="682.51" y1="59.72" x2="694.13" y2="59.72"/>
        <line class="st8" x1="682.51" y1="53.5" x2="685.37" y2="53.5"/>
        <line class="st8" x1="685.66" y1="41.05" x2="697.53" y2="41.05"/>
        <line class="st8" x1="685.66" y1="34.82" x2="686.08" y2="34.82"/>
        <line class="st8" x1="670.96" y1="47.27" x2="675.01" y2="47.27"/>
        <line class="st8" x1="666.42" y1="51.94" x2="666.42" y2="51.94"/>
        <line class="st8" x1="666.42" y1="61.28" x2="680.09" y2="61.28"/>
        <line class="st8" x1="680.09" y1="56.61" x2="682.51" y2="56.61"/>
        <line class="st8" x1="666.42" y1="42.6" x2="670.96" y2="42.6"/>
        <line class="st8" x1="670.96" y1="37.93" x2="685.66" y2="37.93"/>
        <line class="st8" x1="680.09" y1="61.28" x2="680.09" y2="65.94"/>
        <line class="st8" x1="682.51" y1="56.61" x2="682.51" y2="59.72"/>
        <line class="st8" x1="682.51" y1="56.61" x2="682.51" y2="53.5"/>
        <line class="st8" x1="685.66" y1="37.93" x2="685.66" y2="41.05"/>
        <line class="st8" x1="685.66" y1="37.93" x2="685.66" y2="34.82"/>
        <line class="st8" x1="670.96" y1="42.6" x2="670.96" y2="47.27"/>
        <line class="st8" x1="666.42" y1="51.94" x2="666.42" y2="51.94"/>
        <line class="st8" x1="666.42" y1="51.94" x2="666.42" y2="61.28"/>
        <line class="st8" x1="680.09" y1="61.28" x2="680.09" y2="56.61"/>
        <line class="st8" x1="666.42" y1="51.94" x2="666.42" y2="42.6"/>
        <line class="st8" x1="670.96" y1="42.6" x2="670.96" y2="37.93"/>
      </g>
      <text class="st28" transform="translate(675.36 48.76)"><tspan x="0" y="0">S. tchadensis</tspan></text>
      <text class="st28" transform="translate(687.04 35.59)"><tspan x="0" y="0">Ar. ramidus</tspan></text>
      <text class="st28" transform="translate(698.44 42.6)"><tspan x="0" y="0">Au. anamensis</tspan></text>
      <text class="st28" transform="translate(694.93 61.28)"><tspan x="0" y="0">H. ergaster</tspan></text>
      <text class="st28" transform="translate(692.53 67.82)"><tspan x="0" y="0">H. habilis</tspan></text>
      <text class="st28" transform="translate(685.65 55.05)"><tspan x="0" y="0">Au. afarensis</tspan></text>
    </g>
    <g>
      <line class="st7" x1="553.48" y1="137.17" x2="556.97" y2="137.17"/>
      <line class="st7" x1="560.57" y1="122.45" x2="561.16" y2="122.45"/>
      <line class="st7" x1="560.57" y1="107.73" x2="573.07" y2="107.73"/>
      <line class="st7" x1="546.33" y1="166.61" x2="550.35" y2="166.61"/>
      <line class="st7" x1="546.33" y1="151.89" x2="556.32" y2="151.89"/>
      <line class="st7" x1="530.25" y1="181.33" x2="533.61" y2="181.33"/>
      <line class="st7" x1="530.25" y1="162.01" x2="530.25" y2="162.01"/>
      <line class="st7" x1="530.25" y1="142.69" x2="540.45" y2="142.69"/>
      <line class="st7" x1="540.45" y1="126.13" x2="553.48" y2="126.13"/>
      <line class="st7" x1="553.48" y1="115.09" x2="560.57" y2="115.09"/>
      <line class="st7" x1="540.45" y1="159.25" x2="546.33" y2="159.25"/>
      <line class="st7" x1="553.48" y1="126.13" x2="553.48" y2="137.17"/>
      <line class="st7" x1="560.57" y1="115.09" x2="560.57" y2="122.45"/>
      <line class="st7" x1="560.57" y1="115.09" x2="560.57" y2="107.73"/>
      <line class="st7" x1="546.33" y1="159.25" x2="546.33" y2="166.61"/>
      <line class="st7" x1="546.33" y1="159.25" x2="546.33" y2="151.89"/>
      <line class="st7" x1="530.25" y1="162.01" x2="530.25" y2="181.33"/>
      <line class="st7" x1="530.25" y1="162.01" x2="530.25" y2="162.01"/>
      <line class="st7" x1="530.25" y1="162.01" x2="530.25" y2="142.69"/>
      <line class="st7" x1="540.45" y1="142.69" x2="540.45" y2="126.13"/>
      <line class="st7" x1="553.48" y1="126.13" x2="553.48" y2="115.09"/>
      <line class="st7" x1="540.45" y1="142.69" x2="540.45" y2="159.25"/>
      <text class="st11" transform="translate(535.35 184.34)"><tspan x="0" y="0">S. tchadensis</tspan></text>
      <text class="st11" transform="translate(551.33 169.87)"><tspan x="0" y="0">Au. anamensis</tspan></text>
      <text class="st11" transform="translate(558.45 138.73)"><tspan x="0" y="0">Au. afarensis</tspan></text>
      <text class="st11" transform="translate(562.3 125.62)"><tspan x="0" y="0">H. habilis</tspan></text>
      <text class="st11" transform="translate(558.45 154.75)"><tspan x="0" y="0">Ar. ramidus</tspan></text>
      <text class="st11" transform="translate(573.07 110.69)"><tspan x="0" y="0">H. ergaster</tspan></text>
    </g>
    <g>
      <line class="st7" x1="709.14" y1="190.19" x2="725.87" y2="190.19"/>
      <line class="st7" x1="709.14" y1="174.01" x2="748.04" y2="174.01"/>
      <line class="st7" x1="730.64" y1="157.82" x2="738.21" y2="157.82"/>
      <line class="st7" x1="730.64" y1="141.64" x2="740.4" y2="141.64"/>
      <line class="st7" x1="682.88" y1="222.57" x2="715.79" y2="222.57"/>
      <line class="st7" x1="682.88" y1="206.38" x2="716.79" y2="206.38"/>
      <line class="st7" x1="680.09" y1="190.19" x2="680.09" y2="190.19"/>
      <line class="st7" x1="680.09" y1="165.92" x2="703.92" y2="165.92"/>
      <line class="st7" x1="703.92" y1="182.1" x2="709.14" y2="182.1"/>
      <line class="st7" x1="703.92" y1="149.73" x2="730.64" y2="149.73"/>
      <line class="st7" x1="680.09" y1="214.47" x2="682.88" y2="214.47"/>
      <line class="st7" x1="709.14" y1="182.1" x2="709.14" y2="190.19"/>
      <line class="st7" x1="709.14" y1="182.1" x2="709.14" y2="174.01"/>
      <line class="st7" x1="730.64" y1="149.73" x2="730.64" y2="157.82"/>
      <line class="st7" x1="730.64" y1="149.73" x2="730.64" y2="141.64"/>
      <line class="st7" x1="682.88" y1="214.47" x2="682.88" y2="222.57"/>
      <line class="st7" x1="682.88" y1="214.47" x2="682.88" y2="206.38"/>
      <line class="st7" x1="680.09" y1="190.19" x2="680.09" y2="190.19"/>
      <line class="st7" x1="680.09" y1="190.19" x2="680.09" y2="165.92"/>
      <line class="st7" x1="703.92" y1="165.92" x2="703.92" y2="182.1"/>
      <line class="st7" x1="703.92" y1="165.92" x2="703.92" y2="149.73"/>
      <line class="st7" x1="680.09" y1="190.19" x2="680.09" y2="214.47"/>
      <text class="st22" transform="translate(717.51 225.8)"><tspan x="0" y="0">S. tchadensis</tspan></text>
      <text class="st22" transform="translate(726.01 194.17)"><tspan x="0" y="0">Au. anamensis</tspan></text>
      <text class="st22" transform="translate(720.03 210.43)"><tspan x="0" y="0">Ar. ramidus</tspan></text>
      <text class="st22" transform="translate(742 143.76)"><tspan x="0" y="0">H. ergaster</tspan></text>
      <text class="st22" transform="translate(740.4 161.61)"><tspan x="0" y="0">H. habilis</tspan></text>
      <text class="st22" transform="translate(749.37 178.05)"><tspan x="0" y="0">Au. afarensis</tspan></text>
    </g>
    <text class="st12" transform="translate(638.3 178.27)"><tspan x="0" y="0">H. ergaster</tspan></text>
    <g>
      <line class="st8" x1="623.22" y1="201.12" x2="625.09" y2="201.12"/>
      <line class="st8" x1="623.22" y1="193.1" x2="625.69" y2="193.1"/>
      <line class="st8" x1="623.86" y1="185.08" x2="630.75" y2="185.08"/>
      <line class="st8" x1="630.18" y1="177.05" x2="637.37" y2="177.05"/>
      <line class="st8" x1="630.18" y1="169.03" x2="630.96" y2="169.03"/>
      <line class="st8" x1="610.56" y1="209.15" x2="614.98" y2="209.15"/>
      <line class="st8" x1="610.56" y1="198.62" x2="610.56" y2="198.62"/>
      <line class="st8" x1="610.56" y1="188.09" x2="618.01" y2="188.09"/>
      <line class="st8" x1="618.01" y1="197.11" x2="623.22" y2="197.11"/>
      <line class="st8" x1="618.01" y1="179.06" x2="623.86" y2="179.06"/>
      <line class="st8" x1="623.86" y1="173.04" x2="630.18" y2="173.04"/>
      <line class="st8" x1="623.22" y1="197.11" x2="623.22" y2="201.12"/>
      <line class="st8" x1="623.22" y1="197.11" x2="623.22" y2="193.1"/>
      <line class="st8" x1="623.86" y1="179.06" x2="623.86" y2="185.08"/>
      <line class="st8" x1="630.18" y1="173.04" x2="630.18" y2="177.05"/>
      <line class="st8" x1="630.18" y1="173.04" x2="630.18" y2="169.03"/>
      <line class="st8" x1="610.56" y1="198.62" x2="610.56" y2="209.15"/>
      <line class="st8" x1="610.56" y1="198.62" x2="610.56" y2="198.62"/>
      <line class="st8" x1="610.56" y1="198.62" x2="610.56" y2="188.09"/>
      <line class="st8" x1="618.01" y1="188.09" x2="618.01" y2="197.11"/>
      <line class="st8" x1="618.01" y1="188.09" x2="618.01" y2="179.06"/>
      <line class="st8" x1="623.86" y1="179.06" x2="623.86" y2="173.04"/>
    </g>
    <text class="st12" transform="translate(631.95 185.92)"><tspan x="0" y="0">Ar. ramidus</tspan></text>
    <text class="st12" transform="translate(631.64 170.21)"><tspan x="0" y="0">H. habilis</tspan></text>
    <text class="st12" transform="translate(616.32 210.1)"><tspan x="0" y="0">S. tchadensis</tspan></text>
    <text class="st12" transform="translate(625.69 202.24)"><tspan x="0" y="0">Au. anamensis</tspan></text>
    <text class="st12" transform="translate(626.54 193.84)"><tspan x="0" y="0">Au. afarensis</tspan></text>
    <g>
      <g>
        <line class="st7" x1="577.76" y1="88.27" x2="591.93" y2="88.27"/>
        <line class="st7" x1="577.76" y1="78.6" x2="593.34" y2="78.6"/>
        <line class="st7" x1="573.67" y1="68.94" x2="578.85" y2="68.94"/>
        <line class="st7" x1="584.87" y1="59.27" x2="592.07" y2="59.27"/>
        <line class="st7" x1="607.47" y1="49.6" x2="611.74" y2="49.6"/>
        <line class="st7" x1="607.47" y1="39.93" x2="626.53" y2="39.93"/>
        <line class="st7" x1="568.78" y1="71.96" x2="568.78" y2="71.96"/>
        <line class="st7" x1="568.78" y1="83.44" x2="577.76" y2="83.44"/>
        <line class="st7" x1="568.78" y1="60.48" x2="573.67" y2="60.48"/>
        <line class="st7" x1="573.67" y1="52.02" x2="584.87" y2="52.02"/>
        <line class="st7" x1="584.87" y1="44.76" x2="607.47" y2="44.76"/>
        <line class="st7" x1="577.76" y1="83.44" x2="577.76" y2="88.27"/>
        <line class="st7" x1="577.76" y1="83.44" x2="577.76" y2="78.6"/>
        <line class="st7" x1="573.67" y1="60.48" x2="573.67" y2="68.94"/>
        <line class="st7" x1="584.87" y1="52.02" x2="584.87" y2="59.27"/>
        <line class="st7" x1="607.47" y1="44.76" x2="607.47" y2="49.6"/>
        <line class="st7" x1="607.47" y1="44.76" x2="607.47" y2="39.93"/>
        <line class="st7" x1="568.78" y1="71.96" x2="568.78" y2="71.96"/>
        <line class="st7" x1="568.78" y1="71.96" x2="568.78" y2="83.44"/>
        <line class="st7" x1="568.78" y1="71.96" x2="568.78" y2="60.48"/>
        <line class="st7" x1="573.67" y1="60.48" x2="573.67" y2="52.02"/>
        <line class="st7" x1="584.87" y1="52.02" x2="584.87" y2="44.76"/>
      </g>
      <text class="st26" transform="translate(594.63 80.31)"><tspan x="0" y="0">Au. anamensis</tspan></text>
      <text class="st26" transform="translate(592.96 61.14)"><tspan x="0" y="0">Au. afarensis</tspan></text>
      <text class="st26" transform="translate(612.2 51.35)"><tspan x="0" y="0">H. habilis</tspan></text>
      <text class="st26" transform="translate(627.23 41.52)"><tspan x="0" y="0">H. ergaster</tspan></text>
      <text class="st26" transform="translate(580.54 70.85)"><tspan x="0" y="0">Ar. ramidus</tspan></text>
      <text class="st26" transform="translate(593.34 90.27)"><tspan x="0" y="0">S. tchadensis</tspan></text>
    </g>
  </g>
  <g>
    <path class="st2" d="M630.05,113.81c1.71,0,3.37,0,5,.01"/>
    <path class="st3" d="M645.16,113.91c47.09.58,57.85,3.86,85.35,12.23,26.07,7.93,45.88,7.93,92.46,7.93,39.49,0,45.69-.15,57.68-.13"/>
    <path class="st2" d="M885.69,133.96c1.52,0,3.17.02,5,.03"/>
    <circle class="st31" cx="630.33" cy="113.84" r="5.64" transform="translate(432.77 723.14) rotate(-82.27)"/>
    <path class="st31" d="M899.74,134.07c-4.27,1.56-9.56,4.24-12.85,7.09l2.61-7.12-2.55-7.14c3.27,2.87,8.54,5.59,12.79,7.18Z"/>
  </g>
</svg>